# xmcd CD database file
#
# Track frame offsets:
#	150
#	18525
#	33830
#	45306
#	64958
#	80482
#	97205
#	121948
#	138969
#	156070
#	174967
#
# Disc length: 2745 seconds
#
# Revision: 0
# Processed by: cddbd v1.5.2PL0 Copyright (c) Steve Scherf et al.
# Submitted via: CDex 1.51
#
DISCID=860ab70b
DTITLE=Nina Simone - Little Girl Blue
DYEAR=2011
DGENRE=Blues
TTITLE0=Mood Indigo
TTITLE1=Don't Smoke In Bed
TTITLE2=He Needs Me
TTITLE3=Little Girl Blue
TTITLE4=Love Me Or Leave Me
TTITLE5=My Baby Just Cares For Me
TTITLE6=Good Bait
TTITLE7=Plain Gold Ring
TTITLE8=You'll Never Walk Alone
TTITLE9=I Love You Porgy
TTITLE10=Central Park Blues
EXTD=YEAR: 2011
EXTT0=
EXTT1=
EXTT2=
EXTT3=
EXTT4=
EXTT5=
EXTT6=
EXTT7=
EXTT8=
EXTT9=
EXTT10=
PLAYORDER=
